<svg aria-hidden="true" style="position: absolute; width: 0; height: 0; overflow: hidden;" version="1.1" xmlns="http://www.w3.org/2000/svg" xmlns:xlink="http://www.w3.org/1999/xlink">
<defs>


<symbol id="icon-arrow-left" viewBox="0 0 32 32">
<path d="M32 12h-16l6-6-6-6-16 16 16 16 6-6-6-6h16z"></path>
</symbol>
<symbol id="icon-arrow-down" viewBox="0 0 32 32">
<path d="M12 0v16l-6-6-6 6 16 16 16-16-6-6-6 6v-16z"></path>
</symbol>
<symbol id="icon-arrow-right" viewBox="0 0 32 32">
<path d="M0 20h16l-6 6 6 6 16-16-16-16-6 6 6 6h-16z"></path>
</symbol>
<symbol id="icon-arrow-up" viewBox="0 0 32 32">
<path d="M20 32v-16l6 6 6-6-16-16-16 16 6 6 6-6v16z"></path>
</symbol>
<symbol id="icon-how_to_reg" viewBox="0 0 24 24">
<path d="M15.469 20.484l-3.469-3.469 1.406-1.406 2.063 2.063 5.109-5.156 1.406 1.406zM11.016 12q-1.641 0-2.836-1.172t-1.195-2.813 1.195-2.836 2.836-1.195 2.813 1.195 1.172 2.836-1.172 2.813-2.813 1.172zM9 17.016l3 3h-9v-2.016q0-1.781 2.742-2.883t5.273-1.102q0.703 0 0.984 0.047z"></path>
</symbol>
<symbol id="icon-phone_in_talk" viewBox="0 0 24 24">
<path d="M15 12q0-1.219-0.891-2.109t-2.109-0.891v-2.016q2.063 0 3.539 1.477t1.477 3.539h-2.016zM18.984 12q0-2.906-2.039-4.945t-4.945-2.039v-2.016q3.75 0 6.375 2.625t2.625 6.375h-2.016zM20.016 15.516q0.422 0 0.703 0.281t0.281 0.703v3.516q0 0.422-0.281 0.703t-0.703 0.281q-7.031 0-12.023-4.992t-4.992-12.023q0-0.422 0.281-0.703t0.703-0.281h3.516q0.422 0 0.703 0.281t0.281 0.703v0.047q0 1.922 0.563 3.516 0.094 0.188 0.094 0.328 0 0.469-0.328 0.703l-2.203 2.203q0.938 1.781 2.883 3.727t3.727 2.883l2.203-2.203q0.328-0.328 0.703-0.328 0.141 0 0.328 0.094 1.688 0.563 3.563 0.563z"></path>
</symbol>
<symbol id="icon-mail-material-4-svgrepo-com" viewBox="0 0 32 32">
<path d="M24.745 17.557v6.89l-6.413-6.312 2.626-2.229c-0.608-0.477-1.14-1.043-1.575-1.676l-5.442 4.619c-0.106 0.089-0.262 0.139-0.431 0.139-0.165 0-0.321-0.051-0.426-0.139l-9.972-8.461h14.865c-0.021-0.236-0.034-0.477-0.034-0.722 0-0.519 0.051-1.026 0.144-1.52h-18.087v20.265h27.020v-10.842c-0.359 0.051-0.726 0.076-1.098 0.076-0.401 0-0.794-0.030-1.178-0.089zM2.276 12.693l6.413 5.442-6.413 6.312v-11.754zM3.931 26.169l6.586-6.485 0.861 0.73c0.574 0.49 1.33 0.756 2.132 0.756s1.562-0.266 2.132-0.752l0.861-0.735 6.586 6.485h-19.159z"></path>
<path d="M25.922 3.589c-3.357 0-6.078 2.721-6.078 6.079s2.721 6.079 6.078 6.079c3.357 0 6.078-2.721 6.078-6.079s-2.721-6.079-6.078-6.079zM27.477 13.219h-1.629v-5.349l-1.817 1.579v-1.755l1.817-1.579h1.629v7.104z"></path>
</symbol>
<symbol id="icon-facebook-overlapping-logo-svgrepo-com" viewBox="0 0 32 32">
<path d="M8.455 6.816h13.91v-4.94h-22.365v22.127h8.455z"></path>
<path d="M9.637 7.997v22.128h11.070v-7.667h-2.984v-3.456h2.983v-2.547c0-2.958 1.805-4.567 4.442-4.567 1.263 0 2.347 0.094 2.666 0.135v3.091l-1.829 0.001c-1.433 0-1.711 0.681-1.711 1.68v2.207h3.419l-0.446 3.456h-2.974v7.667h7.726v-22.128h-22.362z"></path>
</symbol>
<symbol id="icon-viber-svgrepo-com-2" viewBox="0 0 32 32">
<path fill="#665cac" style="fill: var(--color1, #665cac)" d="M19.2 0h-6.401c-6.177 0-11.201 5.025-11.201 11.201v4.801c0 4.336 2.501 8.271 6.401 10.123v5.346c0 0.464 0.581 0.707 0.911 0.377l4.644-4.644h5.646c6.177 0 11.201-5.025 11.201-11.201v-4.801c0-6.177-5.025-11.201-11.201-11.201z"></path>
<path fill="#523494" style="fill: var(--color2, #523494)" d="M9.599 26.125c-3.9-1.851-6.401-5.786-6.401-10.123v-4.801c0-6.176 5.025-11.201 11.201-11.201h-1.6c-6.177 0-11.201 5.025-11.201 11.201v4.801c0 4.336 2.501 8.271 6.401 10.123v5.346c0 0.464 0.581 0.707 0.911 0.377l0.69-0.69v-5.034z"></path>
<path fill="#fff" style="fill: var(--color3, #fff)" d="M24.053 19.881l-0.48-2.598c-0.040-0.215-0.206-0.383-0.42-0.426l-3.772-0.754c-0.175-0.035-0.356 0.020-0.482 0.146l-1.532 1.532c-2.582-1.157-4.015-2.593-5.275-5.285l1.527-1.527c0.126-0.126 0.181-0.307 0.146-0.482l-0.754-3.772c-0.043-0.214-0.212-0.38-0.426-0.42l-2.598-0.479c-0.071-0.013-0.144-0.012-0.215 0.004-0.686 0.156-1.312 0.501-1.81 1-0.863 0.863-1.192 2.121-0.953 3.64 0.401 2.55 1.651 6.1 3.956 8.414l0.031 0.031c2.313 2.304 5.862 3.553 8.413 3.955 0.321 0.051 0.631 0.076 0.927 0.076 1.106 0 2.032-0.349 2.713-1.029 0.498-0.498 0.844-1.124 1-1.81 0.016-0.071 0.017-0.144 0.004-0.215z"></path>
<path fill="#e5e5e5" style="fill: var(--color4, #e5e5e5)" d="M13.098 11.49l0.522-0.522-0.522 0.522z"></path>
<path fill="#e5e5e5" style="fill: var(--color4, #e5e5e5)" d="M18.373 16.775v0z"></path>
<path fill="#e5e5e5" style="fill: var(--color4, #e5e5e5)" d="M21.342 21.929c-0.297 0-0.606-0.025-0.927-0.076-2.55-0.401-6.1-1.651-8.413-3.955l-0.031-0.031c-2.305-2.315-3.555-5.864-3.956-8.414-0.193-1.227-0.015-2.284 0.516-3.1-0.203 0.136-0.394 0.291-0.569 0.466-0.863 0.863-1.192 2.121-0.953 3.64 0.401 2.55 1.651 6.1 3.956 8.414l0.031 0.031c2.313 2.304 5.862 3.553 8.413 3.955 0.321 0.051 0.631 0.076 0.927 0.076 1.106 0 2.032-0.349 2.713-1.029 0.175-0.175 0.33-0.365 0.466-0.569-0.602 0.392-1.336 0.592-2.173 0.592z"></path>
<path fill="#fff" style="fill: var(--color3, #fff)" d="M17.067 9.068c-0.295 0-0.533 0.239-0.533 0.533s0.239 0.533 0.533 0.533c1.177 0 2.134 0.957 2.134 2.134 0 0.291 0.243 0.533 0.533 0.533s0.533-0.243 0.533-0.533c0-1.765-1.436-3.2-3.2-3.2z"></path>
<path fill="#fff" style="fill: var(--color3, #fff)" d="M17.067 6.934c-0.197 0-0.396 0.011-0.592 0.032-0.293 0.032-0.504 0.296-0.472 0.589s0.296 0.504 0.589 0.472c0.157-0.017 0.317-0.026 0.475-0.026 2.353 0 4.267 1.914 4.267 4.267 0 0.158-0.009 0.318-0.026 0.475-0.032 0.289 0.183 0.557 0.472 0.589s0.557-0.183 0.589-0.472c0.022-0.195 0.032-0.395 0.032-0.592 0-2.941-2.393-5.334-5.334-5.334z"></path>
<path fill="#fff" style="fill: var(--color3, #fff)" d="M17.067 4.801c-0.191 0-0.384 0.007-0.574 0.022-0.294 0.022-0.514 0.279-0.492 0.572s0.279 0.514 0.572 0.492c0.163-0.012 0.329-0.019 0.493-0.019 3.529 0 6.401 2.871 6.401 6.401 0 0.499-0.058 0.996-0.171 1.477-0.065 0.276 0.105 0.562 0.378 0.637 0.288 0.079 0.592-0.102 0.66-0.392 0.133-0.561 0.2-1.141 0.2-1.723 0-4.118-3.35-7.468-7.468-7.468z"></path>
</symbol>
<symbol id="icon-telegram-svgrepo-com" viewBox="0 0 32 32">
<path fill="#59aae7" style="fill: var(--color1, #59aae7)" d="M32 16c0 8.837-7.163 16-16 16s-16-7.163-16-16c0-8.837 7.163-16 16-16s16 7.163 16 16z"></path>
<path fill="#3d9ae3" style="fill: var(--color2, #3d9ae3)" d="M16 0c-0.707 0-1.404 0.046-2.087 0.135 7.85 1.023 13.913 7.735 13.913 15.865s-6.063 14.842-13.913 15.865c0.683 0.089 1.38 0.135 2.087 0.135 8.837 0 16-7.163 16-16s-7.163-16-16-16z"></path>
<path fill="#fcfcfc" style="fill: var(--color3, #fcfcfc)" d="M10.293 19.446l-5.16-2.58c-0.141-0.071-0.143-0.272-0.002-0.345l19.604-10.14c0.144-0.074 0.31 0.051 0.279 0.21l-3.375 16.876c-0.024 0.12-0.153 0.188-0.266 0.14l-4.587-1.966c-0.055-0.024-0.118-0.020-0.17 0.009l-5.927 3.293c-0.129 0.072-0.287-0.022-0.287-0.169v-5.155c0-0.073-0.041-0.14-0.107-0.173z"></path>
<path fill="#d8d7da" style="fill: var(--color4, #d8d7da)" d="M12.519 21.185l-0.032-5.152c-0-0.033 0.017-0.064 0.045-0.081l8.369-5.112c0.095-0.058 0.194 0.068 0.116 0.147l-6.369 6.414c-0.007 0.007-0.013 0.015-0.017 0.024l-1.089 2.179-0.844 1.624c-0.045 0.087-0.177 0.055-0.178-0.043z"></path>
</symbol>
<symbol id="icon-wave-haikei" viewBox="0 0 48 32">
<path fill="#fff" style="fill: var(--color1, #fff)" d="M0 0h48v32h-48v-32z"></path>
<path fill="#06f" style="fill: var(--color2, #06f)" d="M0 8.853l2.667 0.731c2.667 0.725 8 2.187 13.333 1.536s10.667-3.403 16-3.477c5.333-0.069 10.667 2.544 13.333 3.851l2.667 1.307v-12.8h-2.667c-2.667 0-8 0-13.333 0s-10.667 0-16 0c-5.333 0-10.667 0-13.333 0h-2.667z"></path>
</symbol>

<symbol id="icon-iconmonstr-linkedin-3" viewBox="0 0 38 38">
<path d="M25.333 0h-18.667c-3.681 0-6.667 2.985-6.667 6.667v18.667c0 3.681 2.985 6.667 6.667 6.667h18.667c3.683 0 6.667-2.985 6.667-6.667v-18.667c0-3.681-2.984-6.667-6.667-6.667zM10.667 25.333h-4v-14.667h4v14.667zM8.667 8.976c-1.288 0-2.333-1.053-2.333-2.352s1.045-2.352 2.333-2.352 2.333 1.053 2.333 2.352-1.044 2.352-2.333 2.352zM26.667 25.333h-4v-7.472c0-4.491-5.333-4.151-5.333 0v7.472h-4v-14.667h4v2.353c1.861-3.448 9.333-3.703 9.333 3.301v9.012z"></path>
</symbol>

<symbol id="icon-tiktok" viewBox="0 0 38 38">
<path d="M16.707 0.027c1.747-0.027 3.48-0.013 5.213-0.027 0.107 2.040 0.84 4.12 2.333 5.56 1.493 1.48 3.6 2.16 5.653 2.387v5.373c-1.92-0.067-3.853-0.467-5.6-1.293-0.76-0.347-1.467-0.787-2.16-1.24-0.013 3.893 0.013 7.787-0.027 11.667-0.107 1.867-0.72 3.72-1.8 5.253-1.747 2.56-4.773 4.227-7.88 4.28-1.907 0.107-3.813-0.413-5.44-1.373-2.693-1.587-4.587-4.493-4.867-7.613-0.027-0.667-0.040-1.333-0.013-1.987 0.24-2.533 1.493-4.96 3.44-6.613 2.213-1.92 5.307-2.84 8.2-2.293 0.027 1.973-0.053 3.947-0.053 5.92-1.32-0.427-2.867-0.307-4.027 0.493-0.84 0.547-1.48 1.387-1.813 2.333-0.28 0.68-0.2 1.427-0.187 2.147 0.32 2.187 2.427 4.027 4.667 3.827 1.493-0.013 2.92-0.88 3.693-2.147 0.253-0.44 0.533-0.893 0.547-1.413 0.133-2.387 0.080-4.76 0.093-7.147 0.013-5.373-0.013-10.733 0.027-16.093z"></path>
</symbol>

<symbol id="icon-icons8-instagram" viewBox="0 0 32 32">
<path fill="#304ffe" style="fill: var(--color1, #304ffe)" d="M27.78 8.987c-0.267 0.173-0.647 0.333-0.807 0.513-0.060 0.060-0.093 0.127-0.080 0.193v0.687l-0.2 0.673-0.42 1.4-0.453 1.5-0.44 1.48-0.333 1.113c0 0.173-0.007 0.347-0.020 0.513-0.047 0.64-0.18 1.253-0.393 1.827-0.127 0.353-0.28 0.693-0.467 1.013-0.067 0.127-0.147 0.253-0.227 0.373-0.267 0.42-0.587 0.807-0.94 1.147-0.273 0.273-0.573 0.527-0.9 0.74 0 0 0 0-0.007 0-0.053 0.047-0.113 0.087-0.18 0.12-0.207 0.14-0.427 0.26-0.653 0.367-0.153 0.080-0.307 0.147-0.467 0.207-0.033 0.020-0.073 0.033-0.107 0.047-0.38 0.18-0.82 0.3-1.26 0.36-0.027 0.007-0.047 0.007-0.073 0.013-0.267 0.047-0.527 0.087-0.793 0.107-0.12 0.013-0.247 0.020-0.367 0.020l-0.473-0.027-2.28-0.12c0-0.007-0.007 0-0.007 0l-1.147-0.060c-0.087 0-0.18 0-0.267-0.007-0.36-0.013-0.707-0.053-1.053-0.127-0.007 0-0.007 0-0.007 0-0.633-0.12-1.24-0.333-1.807-0.62-0.313-0.16-0.62-0.34-0.907-0.547-0.12-0.087-0.233-0.18-0.347-0.28-0.32-0.267-0.607-0.553-0.873-0.847-0.040-0.040-0.073-0.080-0.107-0.12-0.040-0.040-0.080-0.087-0.113-0.127-0.253-0.32-0.467-0.647-0.64-0.993-0.16-0.307-0.287-0.633-0.387-0.993-0.040-0.127-0.073-0.247-0.1-0.38-0.007-0.007-0.013-0.020-0.013-0.033-0.067-0.273-0.127-0.56-0.16-0.847-0.040-0.22-0.060-0.44-0.060-0.667-0.013-0.087-0.013-0.18-0.013-0.267l1.273-1.967 1.813-2.793 0.513-0.787 0.173-0.273v-0.687c0.013-0.153 0.020-0.313 0.013-0.46-0.007-0.467-0.1-0.92-0.253-1.353-0.147-0.46-0.353-0.893-0.567-1.293-0.253-0.46-0.52-0.873-0.74-1.247-0.327-0.547-0.553-0.993-0.493-1.307 0.48-0.113 0.987-0.173 1.5-0.173h10.667c2.787 0 5.187 1.733 6.18 4.173 0.107 0.26 0.2 0.533 0.267 0.813z"></path>
<path fill="#4928f4" style="fill: var(--color2, #4928f4)" d="M28 10.667v0.18l-6.52 3.78c0 0.32-0.080 0.613-0.227 0.88-0.207 0.387-0.553 0.707-0.993 0.98-0.447 0.273-0.993 0.493-1.607 0.653 0 0 0-0.007-0.007 0-2.373 0.613-5.613 0.333-7.187-0.84-0.44-0.327-0.747-0.727-0.88-1.187-0.040-0.153-0.060-0.32-0.060-0.487v-4.793c0.007-0.1-0.060-0.2-0.18-0.3-0.36-0.287-1.207-0.56-2.153-0.833-0.74-0.207-1.533-0.413-2.2-0.613-0.527-0.16-0.973-0.32-1.24-0.473 0.12-0.233 0.26-0.467 0.407-0.687 0.933-1.367 2.36-2.373 4.013-2.753 0.48-0.113 0.987-0.173 1.5-0.173h7.2c3.58 0.627 6.88 2.087 9.647 4.173 0.107 0.26 0.2 0.533 0.267 0.813 0.12 0.44 0.193 0.893 0.213 1.367 0.007 0.1 0.007 0.207 0.007 0.313z"></path>
<path fill="#6200ea" style="fill: var(--color3, #6200ea)" d="M28 10.667v2.94l-0.147 0.453-0.5 1.553-0.52 1.6-0.273 0.853-0.253 0.793-0.247 0.753-0.24 0.747-0.127 0.393-0.167 0.52c0 0.507-0.013 0.953-0.047 1.333-0.007 0.040-0.013 0.080-0.013 0.12-0.040 0.353-0.093 0.653-0.18 0.907-0.007 0.040-0.020 0.080-0.033 0.113-0.173 0.48-0.433 0.787-0.82 0.987-0.093 0.053-0.2 0.093-0.313 0.133-0.353 0.12-0.8 0.18-1.347 0.213-0.4 0.027-0.86 0.033-1.38 0.033h-0.46l-10.107-0.413c-0.52-0.007-0.967-0.040-1.353-0.093-0.56-0.087-0.993-0.233-1.32-0.453-0.467-0.3-0.74-0.74-0.9-1.353-0.040-0.147-0.073-0.3-0.093-0.467-0.067-0.387-0.1-0.833-0.12-1.333 0-0.1 0-0.2-0.007-0.307-0.007-0.007 0-0.007 0-0.007v-0.387c-0.007-0.193-0.007-0.393-0.007-0.6l0.033-1.073 0.020-0.767 0.027-0.893v-0.127l0.093-3.28 0.047-1.54 0.040-1.513 0.013-0.4c0-0.207-0.7-0.327-1.48-0.427-0.62-0.080-1.3-0.153-1.707-0.247 0.033-0.153 0.067-0.307 0.107-0.453 0.12-0.48 0.3-0.933 0.527-1.367 0.12-0.233 0.26-0.467 0.407-0.687 1.44-0.633 2.94-1.127 4.507-1.447 1.373-0.287 2.807-0.44 4.287-0.44 4.907 0 9.44 1.66 13.027 4.46 0.347 0.267 0.687 0.553 1.020 0.853 0.007 0.1 0.007 0.207 0.007 0.313z"></path>
<path fill="#673ab7" style="fill: var(--color4, #673ab7)" d="M28 12.247v3.027l-0.367 0.707-0.7 1.367-0.373 0.72-0.34 0.66-0.147 0.287c0 0.207 0 0.407-0.013 0.6 0 0.287-0.013 0.56-0.033 0.813-0.027 0.3-0.067 0.573-0.107 0.827-0.1 0.527-0.24 0.98-0.44 1.353-0.027 0.047-0.053 0.093-0.080 0.133-0.073 0.12-0.16 0.233-0.253 0.34-0.12 0.147-0.253 0.273-0.407 0.38-0.227 0.173-0.493 0.313-0.8 0.42-0.38 0.14-0.82 0.233-1.34 0.287-0.34 0.033-0.713 0.053-1.12 0.053l-0.28 0.013-9.313 0.54c-0.34 0-0.66-0.020-0.967-0.060-0.033-0.007-0.060-0.013-0.093-0.013-0.453-0.073-0.867-0.193-1.24-0.36-0.453-0.2-0.847-0.467-1.18-0.787-0.293-0.287-0.547-0.613-0.753-0.98-0.047-0.087-0.093-0.167-0.133-0.26-0.2-0.393-0.36-0.833-0.48-1.313-0.020-0.080-0.040-0.167-0.053-0.253-0.040-0.153-0.073-0.313-0.093-0.48-0.073-0.427-0.113-0.88-0.133-1.353v-0.007c-0.007-0.193-0.013-0.38-0.013-0.58l-0.327-0.78-0.047-0.12-0.040-0.1-0.5-1.193-0.080-0.193-0.48-1.153-0.533-1.287c0 0 0 0-0.007 0l-0.54-1.3-0.193-0.473v-1.060c0-0.42 0.040-0.833 0.113-1.233 0.033-0.153 0.067-0.307 0.107-0.453 0.567-0.327 1.16-0.627 1.767-0.893 1.387-0.62 2.873-1.080 4.413-1.36 1.147-0.207 2.34-0.32 3.547-0.32 4.873 0 9.293 1.767 12.747 4.647 0.133 0.107 0.26 0.213 0.387 0.327 0.313 0.273 0.62 0.56 0.92 0.867z"></path>
<path fill="#8e24aa" style="fill: var(--color5, #8e24aa)" d="M28 14.233v3.427l-0.38 0.793-0.72 1.5-0.007 0.020c0 0.287-0.013 0.547-0.033 0.78-0.067 0.767-0.253 1.253-0.56 1.553-0.22 0.227-0.493 0.353-0.833 0.42-0.020 0.007-0.047 0.007-0.067 0.013-0.107 0.020-0.22 0.033-0.34 0.033-0.413 0.040-0.9 0.013-1.46-0.027-0.060 0-0.127-0.007-0.193-0.013-0.407-0.027-0.84-0.053-1.32-0.073-0.26-0.007-0.533-0.013-0.813-0.013h-0.013l-0.68 0.053-1.513 0.107-1.98 0.153-2.020 0.147-1.047 0.080-1.033 0.073c-0.18 0-0.353 0-0.527-0.007 0 0-0.007-0.007-0.007 0-0.753-0.013-1.427-0.060-2.027-0.173-0.553-0.093-1.040-0.24-1.453-0.46-0.427-0.207-0.78-0.5-1.067-0.873-0.273-0.367-0.473-0.827-0.6-1.38 0-0.007 0-0.007 0-0.007-0.093-0.447-0.147-0.967-0.147-1.553l-0.1-0.18-0.593-1.060-0.087-0.147-0.047-0.093-0.62-1.1-0.307-0.553-0.387-0.687-0.667-1.193-0.353-0.627v-2.453c0.587-0.387 1.193-0.727 1.82-1.033 0.76-0.387 1.547-0.713 2.367-0.98 0.893-0.293 1.827-0.527 2.78-0.68 0.967-0.16 1.96-0.24 2.98-0.24 4.533 0 8.693 1.62 11.9 4.313 0.147 0.113 0.287 0.24 0.427 0.36 0.56 0.5 1.093 1.040 1.58 1.607 0.053 0.060 0.107 0.113 0.147 0.173z"></path>
<path fill="#c2185b" style="fill: var(--color6, #c2185b)" d="M28 16.473v4.82c-0.16-0.093-0.38-0.207-0.653-0.327-0.147-0.073-0.313-0.147-0.487-0.213-0.253-0.113-0.527-0.22-0.833-0.327-0.067-0.027-0.133-0.047-0.207-0.067-0.12-0.047-0.247-0.087-0.373-0.127-0.393-0.12-0.827-0.233-1.28-0.333-0.173-0.033-0.353-0.067-0.533-0.093-0.58-0.1-1.2-0.16-1.847-0.167-0.053-0.007-0.113-0.007-0.167-0.007l-1.713 0.013-2.34 0.013-4.993 0.040c-1.587 0-2.56 0.38-3.147 0.533 0 0-0.007 0-0.007 0.007-0.62 0.16-0.813 0.060-0.867-1.027-0.013-0.3-0.020-0.687-0.020-1.16l-0.373-0.287-0.653-0.493-0.4-0.307-0.080-0.060-1.273-0.967-0.347-0.267-0.64-0.48-0.767-0.587v-2.267c0.067-0.053 0.127-0.1 0.193-0.14 0.967-0.667 2-1.233 3.093-1.693 0.973-0.413 2-0.74 3.053-0.973 0.287-0.060 0.58-0.12 0.88-0.16 0.887-0.153 1.8-0.227 2.727-0.227 4.007 0 7.687 1.393 10.607 3.7 0.44 0.347 0.867 0.713 1.267 1.107 0.547 0.52 1.060 1.073 1.533 1.66 0.093 0.12 0.187 0.24 0.28 0.367 0.127 0.16 0.247 0.327 0.367 0.493z"></path>
<path fill="#d81b60" style="fill: var(--color7, #d81b60)" d="M28 19.147v2.187c0 0.433-0.040 0.86-0.12 1.273-0.12 0.613-0.327 1.2-0.607 1.747-0.147 0.033-0.313 0.033-0.5 0.007-0.42-0.073-0.913-0.293-1.447-0.58-0.027-0.007-0.053-0.020-0.073-0.033-0.167-0.087-0.34-0.18-0.513-0.287-0.353-0.193-0.727-0.407-1.1-0.607-0.080-0.040-0.16-0.080-0.233-0.12-0.427-0.22-0.867-0.42-1.307-0.573 0 0 0 0-0.007 0-0.093-0.033-0.193-0.067-0.293-0.093-0.38-0.107-0.767-0.173-1.14-0.173l-0.733-0.213-3.247-0.94c0 0 0 0-0.007 0l-2.867-0.833c-2.507 0-4.047 1.067-4.793 0.66-0.293-0.153-0.467-0.54-0.527-1.3-0.020-0.213-0.027-0.453-0.027-0.733l-0.78-0.38-0.033-0.013h-0.007l-0.56-0.28-0.613-0.293-0.047-0.020-0.113-0.060-2.307-1.12v-2.287c0.113-0.1 0.233-0.193 0.353-0.287 0.127-0.1 0.253-0.193 0.38-0.293 0.007 0 0.007 0 0.007 0 0.787-0.567 1.62-1.067 2.507-1.48 1.033-0.493 2.133-0.873 3.273-1.12 0.167-0.040 0.34-0.080 0.513-0.107 0.947-0.18 1.92-0.273 2.913-0.273 3.513 0 6.74 1.14 9.34 3.060 0.753 0.56 1.453 1.18 2.093 1.853 0.527 0.553 1.013 1.153 1.453 1.78 0.033 0.047 0.067 0.093 0.1 0.133 0.247 0.36 0.473 0.727 0.687 1.107 0.14 0.227 0.26 0.46 0.38 0.693z"></path>
<path fill="#f50057" style="fill: var(--color8, #f50057)" d="M27.88 22.607c-0.12 0.613-0.327 1.2-0.607 1.747-0.127 0.247-0.267 0.48-0.42 0.707-0.093 0.14-0.193 0.273-0.293 0.4-0.24-0.093-0.593-0.227-1.027-0.373 0 0 0 0 0-0.007-0.327-0.113-0.7-0.233-1.1-0.347-0.113-0.033-0.227-0.067-0.347-0.1-0.473-0.127-0.967-0.24-1.447-0.307-0.4-0.067-0.793-0.107-1.16-0.107l-0.307-0.087h-0.007l-9.687-2.787-2.64-0.627c0 0 0 0-0.007 0l-1.527-0.353c0-0.007 0-0.007 0-0.007l-0.273-0.060-0.14-0.033-1.113-0.26-0.127-0.033-0.947-0.78-0.707-0.593v-2.72c0.247-0.24 0.5-0.467 0.767-0.687 0.080-0.073 0.167-0.14 0.253-0.207 0.080-0.067 0.167-0.133 0.253-0.2 0.607-0.46 1.247-0.873 1.927-1.227 0.867-0.467 1.787-0.84 2.753-1.107 0.187-0.060 0.373-0.113 0.567-0.153 1.093-0.273 2.24-0.413 3.427-0.413 2.98 0 5.753 0.9 8.047 2.44 1.14 0.767 2.167 1.687 3.033 2.733 0.44 0.527 0.84 1.080 1.193 1.667 0.033 0.047 0.060 0.087 0.087 0.133 0.213 0.353 0.413 0.72 0.593 1.093 0.167 0.333 0.313 0.667 0.447 1.013 0.213 0.533 0.387 1.080 0.533 1.64z"></path>
<path fill="#ff1744" style="fill: var(--color9, #ff1744)" d="M26.853 25.060c-0.093 0.14-0.193 0.273-0.293 0.4-0.293 0.367-0.613 0.7-0.973 0.993-0.313 0.26-0.647 0.493-1 0.693-0.133-0.033-0.267-0.073-0.407-0.127-0.44-0.153-0.9-0.407-1.327-0.673-0.64-0.407-1.193-0.847-1.44-1.047-0.093-0.080-0.14-0.12-0.14-0.12l-10.080-0.893-6.633-3.213-0.56-0.173v-2.98c0.313-0.373 0.647-0.727 1-1.067 0.227-0.213 0.467-0.427 0.713-0.627 0.040-0.033 0.080-0.067 0.12-0.093 0.027-0.033 0.060-0.053 0.087-0.067 0.393-0.32 0.807-0.607 1.233-0.867 0.493-0.313 1.013-0.593 1.553-0.827 0.58-0.26 1.187-0.48 1.813-0.647 1.087-0.307 2.24-0.467 3.427-0.467 2.72 0 5.233 0.827 7.307 2.247 1.327 0.907 2.473 2.053 3.38 3.38 0.3 0.427 0.567 0.88 0.813 1.347 0.087 0.173 0.173 0.347 0.247 0.52 0.080 0.167 0.153 0.333 0.227 0.5 0.14 0.347 0.267 0.693 0.38 1.053 0.213 0.667 0.373 1.347 0.473 2.053 0.033 0.233 0.060 0.467 0.080 0.7z"></path>
<path fill="#ff5722" style="fill: var(--color10, #ff5722)" d="M25.593 26.28c0 0.053 0 0.113-0.007 0.173-0.313 0.26-0.647 0.493-1 0.693-0.147 0.080-0.293 0.16-0.447 0.227-0.153 0.073-0.307 0.14-0.467 0.2-0.227-0.12-0.533-0.267-0.86-0.407-0.46-0.207-0.96-0.393-1.347-0.453-0.093-0.020-0.18-0.027-0.26-0.027l-1.093-0.14h-0.013l-2.733-0.36-0.64-0.080-5.040-0.653c-0.327 0-0.673-0.020-1.033-0.067-0.44-0.040-0.9-0.107-1.36-0.2-0.453-0.080-0.913-0.187-1.353-0.3-0.46-0.107-0.913-0.233-1.333-0.353-0.487-0.147-0.94-0.287-1.32-0.413-0.313-0.1-0.58-0.193-0.787-0.267-0.12-0.287-0.22-0.587-0.293-0.893-0.14-0.52-0.207-1.067-0.207-1.627v-1.113c0.213-0.353 0.447-0.7 0.707-1.027 0.473-0.627 1.013-1.2 1.6-1.707 0.020-0.027 0.047-0.047 0.067-0.060l0.007-0.007c0.207-0.187 0.42-0.353 0.647-0.513 0.027-0.027 0.053-0.047 0.080-0.067 0.107-0.080 0.22-0.16 0.34-0.233 0.953-0.647 2.007-1.153 3.133-1.493 1.067-0.32 2.193-0.487 3.367-0.487 2.327 0 4.5 0.687 6.313 1.86 1.34 0.86 2.493 1.993 3.373 3.32 0.107 0.153 0.207 0.307 0.307 0.467 0.46 0.78 0.84 1.62 1.12 2.5 0.033 0.1 0.060 0.2 0.087 0.307 0.053 0.18 0.1 0.367 0.14 0.553 0.013 0.047 0.027 0.093 0.040 0.147 0.093 0.42 0.16 0.86 0.207 1.3 0 0.007 0 0.007 0 0.007 0.040 0.393 0.060 0.793 0.060 1.193z"></path>
<path fill="#ff6f00" style="fill: var(--color11, #ff6f00)" d="M24.22 26.28c0 0.233-0.013 0.487-0.040 0.74-0.013 0.12-0.027 0.24-0.040 0.353-0.153 0.073-0.307 0.14-0.467 0.2-0.3 0.113-0.607 0.207-0.92 0.273-0.213 0.047-0.433 0.087-0.653 0.107h-0.007c-0.207-0.127-0.447-0.28-0.693-0.453-0.447-0.313-0.913-0.667-1.287-0.953-0.007-0.007-0.007-0.007-0.013-0.013-0.393-0.3-0.673-0.527-0.673-0.527l-0.707 0.027-1.36 0.047-0.633 0.027-4.7 0.173c-0.14 0.007-0.307 0.007-0.513 0h-0.007c-0.28-0.007-0.613-0.027-0.98-0.060-0.427-0.033-0.893-0.073-1.367-0.12-0.46-0.053-0.927-0.107-1.373-0.16-0.493-0.053-0.96-0.113-1.36-0.167-0.313-0.040-0.587-0.073-0.807-0.1-0.187-0.213-0.353-0.433-0.513-0.673-0.24-0.36-0.447-0.74-0.607-1.147-0.12-0.287-0.22-0.587-0.293-0.893 0.193-0.593 0.447-1.153 0.747-1.693 0.24-0.44 0.52-0.86 0.827-1.26 0.3-0.393 0.627-0.76 0.98-1.093v-0.007c0.1-0.1 0.2-0.193 0.3-0.28 0.187-0.173 0.38-0.333 0.58-0.487h0.007c0.007-0.013 0.013-0.013 0.020-0.020 0.16-0.127 0.327-0.24 0.493-0.353 0.987-0.673 2.1-1.173 3.3-1.467 0.793-0.193 1.627-0.3 2.487-0.3 1.693 0 3.293 0.407 4.7 1.14h0.007c1.207 0.62 2.273 1.473 3.133 2.5 0.473 0.547 0.88 1.147 1.213 1.78 0.233 0.427 0.433 0.873 0.6 1.327 0.013 0.040 0.027 0.073 0.040 0.107 0.113 0.333 0.213 0.68 0.3 1.027 0.060 0.247 0.107 0.5 0.147 0.753 0.013 0.080 0.027 0.153 0.033 0.233 0.067 0.46 0.1 0.933 0.1 1.413z"></path>
<path fill="#ff9800" style="fill: var(--color12, #ff9800)" d="M22.853 26.28v0.067c0 0.227-0.020 0.513-0.040 0.82-0.020 0.227-0.040 0.46-0.060 0.68-0.213 0.047-0.433 0.087-0.653 0.107h-0.007c-0.253 0.033-0.5 0.047-0.76 0.047h-1.167l-0.253-0.073-1.313-0.4-5.753-1.727c0 0-0.553 0.22-1.333 0.48h-0.007c-0.3 0.1-0.627 0.207-0.973 0.313-0.433 0.127-0.893 0.253-1.347 0.353-0.467 0.107-0.927 0.187-1.34 0.22-0.127 0.013-0.253 0.020-0.367 0.020-0.373-0.207-0.733-0.453-1.060-0.727-0.287-0.24-0.553-0.5-0.8-0.787-0.187-0.213-0.353-0.433-0.513-0.673 0.047-0.3 0.1-0.593 0.18-0.88 0.2-0.793 0.513-1.553 0.927-2.247 0.227-0.393 0.48-0.773 0.773-1.127 0.007-0.020 0.027-0.040 0.047-0.053-0.007-0.007 0-0.007 0-0.007 0.087-0.113 0.18-0.22 0.273-0.32 0-0.007 0-0.007 0-0.007 0.273-0.293 0.553-0.573 0.86-0.833 0.107-0.087 0.207-0.173 0.32-0.26 0.020-0.020 0.040-0.033 0.067-0.053 1.5-1.147 3.373-1.84 5.393-1.84 2.293 0 4.38 0.86 5.96 2.273 0.76 0.687 1.407 1.507 1.893 2.42 0.040 0.067 0.080 0.14 0.113 0.213 0.060 0.12 0.12 0.247 0.173 0.38 0.22 0.48 0.393 0.987 0.513 1.507 0.013 0.053 0.027 0.107 0.040 0.16 0.053 0.247 0.1 0.5 0.133 0.753 0.053 0.393 0.080 0.793 0.080 1.2z"></path>
<path fill="#ffc107" style="fill: var(--color13, #ffc107)" d="M21.48 26.28c0 0.133-0.007 0.28-0.013 0.433-0.013 0.247-0.033 0.513-0.067 0.787-0.013 0.167-0.040 0.333-0.067 0.5h-3.653l-4.76-0.76c-0.393 0-1.247 0.173-2.147 0.34-0.473 0.087-0.953 0.18-1.387 0.24-0.053 0.007-0.107 0.013-0.153 0.020h-0.007c-0.467-0.1-0.92-0.253-1.347-0.453-0.133-0.060-0.267-0.127-0.4-0.2-0.373-0.207-0.733-0.453-1.060-0.727-0.007-0.080-0.013-0.147-0.013-0.18 0-0.173 0.007-0.34 0.020-0.507 0.027-0.427 0.087-0.84 0.18-1.24 0.147-0.607 0.36-1.193 0.647-1.733 0.053-0.113 0.113-0.227 0.18-0.333 0.027-0.053 0.060-0.1 0.087-0.153 0.12-0.193 0.253-0.38 0.387-0.567 0.28-0.367 0.593-0.713 0.927-1.027 0.007 0 0.007 0 0.007 0 0.027-0.027 0.053-0.053 0.080-0.073 0.033-0.027 0.060-0.060 0.093-0.080 0.133-0.12 0.267-0.227 0.407-0.327 0-0.007 0.007-0.007 0.007-0.007 1.26-0.94 2.82-1.493 4.52-1.493 1.32 0 2.547 0.333 3.62 0.92h0.007c0.92 0.507 1.72 1.193 2.353 2.020 0.247 0.32 0.467 0.66 0.653 1.020h0.007c0.033 0.067 0.067 0.133 0.1 0.2 0.2 0.393 0.36 0.807 0.48 1.233h0.007c0.007 0.033 0.020 0.067 0.027 0.1 0.080 0.287 0.147 0.58 0.193 0.88 0.007 0.060 0.013 0.127 0.020 0.187 0.047 0.32 0.067 0.647 0.067 0.98z"></path>
<path fill="#ffd54f" style="fill: var(--color14, #ffd54f)" d="M20.113 26.207c0 0.107 0 0.22-0.013 0.327v0.007c0 0.007 0 0.007 0 0.007-0.013 0.48-0.080 0.953-0.187 1.38 0 0.027-0.007 0.047-0.020 0.073h-3.113l-2.907-0.627-0.053 0.013-2.973 0.613h-0.18c-0.427 0-0.847-0.040-1.253-0.12-0.060-0.013-0.12-0.027-0.18-0.040h-0.007c-0.467-0.1-0.92-0.253-1.347-0.453-0.013-0.073-0.027-0.147-0.033-0.22-0.047-0.287-0.067-0.587-0.067-0.887 0-0.113 0-0.227 0.007-0.34 0.020-0.36 0.073-0.713 0.153-1.053 0.053-0.253 0.127-0.5 0.213-0.733 0.073-0.207 0.16-0.407 0.253-0.6 0.080-0.167 0.173-0.327 0.267-0.487 0.093-0.153 0.193-0.3 0.3-0.447 0.267-0.367 0.58-0.707 0.927-1.007 0.2-0.173 0.42-0.34 0.647-0.487 0.973-0.64 2.14-1.013 3.4-1.013 0.247 0 0.487 0.013 0.72 0.047h0.013c0.713 0.080 1.38 0.28 1.993 0.58 0.007 0 0.007 0 0.007 0 0.967 0.473 1.787 1.187 2.387 2.067 0.1 0.147 0.2 0.307 0.287 0.467 0.073 0.127 0.14 0.26 0.2 0.393 0.093 0.207 0.18 0.427 0.253 0.647h0.007c0.073 0.247 0.14 0.493 0.187 0.753v0.007c0.073 0.367 0.113 0.747 0.113 1.133z"></path>
<path fill="#ffe082" style="fill: var(--color15, #ffe082)" d="M18.74 26.347v0.020c0 0.393-0.047 0.78-0.14 1.16-0.033 0.16-0.080 0.32-0.14 0.473h-2.987l-1.527-0.42-1.527 0.42h-1.753c-0.427 0-0.847-0.040-1.253-0.12-0.013-0.020-0.020-0.040-0.027-0.060-0.093-0.287-0.167-0.573-0.2-0.873-0.027-0.193-0.040-0.393-0.040-0.6 0-0.080 0-0.167 0.013-0.247 0.007-0.313 0.053-0.62 0.133-0.913 0.040-0.2 0.1-0.393 0.18-0.58 0.027-0.093 0.067-0.18 0.113-0.267 0.1-0.227 0.22-0.447 0.353-0.66 0.147-0.213 0.307-0.413 0.487-0.6 0.213-0.24 0.453-0.46 0.727-0.64 0.467-0.34 1-0.593 1.58-0.733 0.387-0.107 0.793-0.16 1.213-0.16 1.333 0 2.527 0.533 3.393 1.393 0.033 0.033 0.073 0.073 0.107 0.12h0.007c0.093 0.1 0.18 0.2 0.267 0.313 0.247 0.313 0.453 0.653 0.613 1.027 0.080 0.173 0.147 0.353 0.2 0.54 0.007 0.027 0.013 0.047 0.020 0.073 0.093 0.327 0.153 0.667 0.167 1.020 0.013 0.1 0.020 0.207 0.020 0.313z"></path>
<path fill="#ffecb3" style="fill: var(--color16, #ffecb3)" d="M17.373 26.347c0 0.273-0.033 0.533-0.107 0.78-0.067 0.267-0.167 0.52-0.293 0.76-0.020 0.040-0.067 0.113-0.067 0.113h-5.92c-0.007-0.007-0.013-0.020-0.013-0.027-0.080-0.127-0.147-0.253-0.2-0.393-0.133-0.307-0.213-0.64-0.24-0.987-0.013-0.080-0.013-0.167-0.013-0.247 0-0.040 0-0.087 0.007-0.127 0.007-0.293 0.047-0.573 0.127-0.833 0.067-0.24 0.153-0.46 0.267-0.673 0 0 0.007-0.007 0.007-0.013 0.080-0.14 0.167-0.28 0.267-0.413 0.327-0.44 0.76-0.8 1.26-1.033 0.007 0 0.007 0 0.007 0 0.16-0.080 0.327-0.147 0.5-0.193 0 0 0 0 0.007 0 0.307-0.093 0.64-0.14 0.98-0.14 0.393 0 0.773 0.060 1.12 0.187 0.127 0.033 0.247 0.087 0.367 0.147 0 0 0 0 0.007 0 0.573 0.273 1.060 0.7 1.393 1.233 0.067 0.1 0.127 0.207 0.18 0.32 0.027 0.047 0.053 0.1 0.073 0.147 0.153 0.347 0.247 0.727 0.273 1.127 0.007 0.033 0.007 0.067 0.007 0.107 0.007 0.053 0.007 0.107 0.007 0.16z"></path>
<path fill="none" stroke="#fff" style="stroke: var(--color17, #fff)" stroke-linejoin="round" stroke-linecap="round" stroke-miterlimit="10" stroke-width="1.3333" d="M20 7.333h-8c-2.6 0-4.667 2.067-4.667 4.667v8c0 2.6 2.067 4.667 4.667 4.667h8c2.6 0 4.667-2.067 4.667-4.667v-8c0-2.6-2.067-4.667-4.667-4.667z"></path>
<path fill="#fff" style="fill: var(--color17, #fff)" d="M21.333 10.667c0 0.368-0.298 0.667-0.667 0.667s-0.667-0.298-0.667-0.667c0-0.368 0.298-0.667 0.667-0.667s0.667 0.298 0.667 0.667z"></path>
<path fill="none" stroke="#fff" style="stroke: var(--color17, #fff)" stroke-linejoin="round" stroke-linecap="round" stroke-miterlimit="10" stroke-width="1.3333" d="M20 16c0 2.209-1.791 4-4 4s-4-1.791-4-4c0-2.209 1.791-4 4-4s4 1.791 4 4z"></path>
</symbol>


<symbol id="icon-13760149261552302412" viewBox="0 0 32 32">
<path fill="#f99900" style="fill: var(--color1, #f99900)" d="M32 16c0 8.837-7.163 16-16 16s-16-7.163-16-16c0-8.837 7.163-16 16-16s16 7.163 16 16z"></path>
<path fill="#fff" style="fill: var(--color2, #fff)" opacity="0.5" d="M22.575 4.475c0-0.1-0.1-0.2-0.25-0.225l-0.475-0.075c-0.125-0.025-0.275-0.15-0.275-0.275l-0.075-0.475c-0.025-0.125-0.125-0.25-0.225-0.25s-0.2 0.1-0.225 0.25l-0.050 0.475c-0.025 0.125-0.15 0.275-0.275 0.275l-0.475 0.075c-0.125 0.025-0.25 0.125-0.25 0.225s0.1 0.2 0.25 0.225l0.475 0.075c0.125 0.025 0.275 0.15 0.275 0.275l0.075 0.475c0.025 0.125 0.125 0.25 0.225 0.25s0.2-0.1 0.2-0.25l0.075-0.525c0.025-0.125 0.15-0.25 0.275-0.275l0.45-0.025c0.15-0.050 0.275-0.125 0.275-0.225z"></path>
<path fill="#fff" style="fill: var(--color2, #fff)" opacity="0.5" d="M19.75 29.025c0-0.1-0.1-0.2-0.25-0.225l-0.475-0.075c-0.125-0.025-0.275-0.15-0.275-0.275l-0.075-0.475c-0.025-0.125-0.125-0.25-0.225-0.25s-0.2 0.1-0.225 0.25l-0.075 0.475c-0.025 0.125-0.15 0.275-0.275 0.275l-0.475 0.075c-0.125 0.025-0.25 0.125-0.25 0.225s0.1 0.2 0.25 0.225l0.475 0.075c0.125 0.025 0.275 0.15 0.275 0.275l0.075 0.475c0.025 0.125 0.125 0.25 0.225 0.25s0.2-0.1 0.2-0.25l0.075-0.525c0.025-0.125 0.15-0.25 0.275-0.275l0.45-0.025c0.2-0.025 0.3-0.125 0.3-0.225z"></path>
<path fill="#fff" style="fill: var(--color2, #fff)" opacity="0.5" d="M7.075 8.525c0-0.1-0.1-0.2-0.25-0.225l-0.475-0.050c-0.125-0.025-0.275-0.15-0.275-0.275l-0.075-0.475c-0.025-0.125-0.125-0.25-0.225-0.25s-0.2 0.1-0.225 0.25l-0.050 0.45c-0.025 0.125-0.15 0.275-0.275 0.275l-0.475 0.1c-0.125 0.025-0.25 0.125-0.25 0.225s0.1 0.2 0.25 0.225l0.475 0.075c0.125 0.025 0.275 0.15 0.275 0.275l0.075 0.475c0.025 0.125 0.125 0.25 0.225 0.25s0.2-0.1 0.2-0.25l0.075-0.525c0.025-0.125 0.15-0.25 0.275-0.275l0.45-0.025c0.15-0.050 0.275-0.15 0.275-0.25z"></path>
<path fill="#fff" style="fill: var(--color2, #fff)" opacity="0.5" d="M12 29.25c-0.55 0-1-0.45-1-1s0.45-1 1-1c0.55 0 1 0.45 1 1s-0.45 1-1 1zM12 27.725c-0.3 0-0.525 0.25-0.525 0.525 0 0.3 0.25 0.525 0.525 0.525 0.3 0 0.525-0.25 0.525-0.525 0-0.3-0.225-0.525-0.525-0.525z"></path>
<path fill="#fff" style="fill: var(--color2, #fff)" opacity="0.5" d="M12 8c-0.55 0-1-0.45-1-1s0.45-1 1-1c0.55 0 1 0.45 1 1s-0.45 1-1 1zM12 6.475c-0.3 0-0.525 0.25-0.525 0.525 0 0.3 0.25 0.525 0.525 0.525 0.3 0 0.525-0.25 0.525-0.525 0-0.3-0.225-0.525-0.525-0.525z"></path>
<path fill="#6b3c1c" style="fill: var(--color3, #6b3c1c)" d="M29.375 26.25h-27.625c-0.15 0-0.25-0.1-0.25-0.25s0.1-0.25 0.25-0.25h27.625c0.15 0 0.25 0.1 0.25 0.25s-0.1 0.25-0.25 0.25z"></path>
<path fill="#ad5114" style="fill: var(--color4, #ad5114)" d="M2.5 12.25h5.5v13.75h-5.5v-13.75z"></path>
<path fill="#993f0d" style="fill: var(--color5, #993f0d)" d="M2.75 13.5h5.25v0.75h-5.25v-0.75z"></path>
<path fill="#6b3c1c" style="fill: var(--color3, #6b3c1c)" d="M8 26.25h-5.5c-0.15 0-0.25-0.1-0.25-0.25v-13.75c0-0.15 0.1-0.25 0.25-0.25h5.5c0.15 0 0.25 0.1 0.25 0.25v13.75c0 0.125-0.1 0.25-0.25 0.25zM2.75 25.75h5v-13.25h-5v13.25z"></path>
<path fill="#ad5114" style="fill: var(--color4, #ad5114)" d="M2.25 11.75h5.75v1.5h-5.75v-1.5z"></path>
<path fill="#6b3c1c" style="fill: var(--color3, #6b3c1c)" d="M8 13.5h-5.75c-0.15 0-0.25-0.1-0.25-0.25v-1.5c0-0.15 0.1-0.25 0.25-0.25h5.75c0.15 0 0.25 0.1 0.25 0.25v1.5c0 0.125-0.1 0.25-0.25 0.25zM2.5 13h5.25v-1h-5.25v1z"></path>
<path fill="#fff" style="fill: var(--color2, #fff)" opacity="0.5" d="M3.25 14.25h4v1h-4v-1z"></path>
<path fill="#6b3c1c" style="fill: var(--color3, #6b3c1c)" d="M7.25 15.5h-4c-0.15 0-0.25-0.1-0.25-0.25v-1c0-0.15 0.1-0.25 0.25-0.25h4c0.15 0 0.25 0.1 0.25 0.25v1c0 0.15-0.1 0.25-0.25 0.25zM3.5 15h3.5v-0.5h-3.5v0.5z"></path>
<path fill="#fff" style="fill: var(--color2, #fff)" opacity="0.5" d="M3.25 16.5h4v1h-4v-1z"></path>
<path fill="#6b3c1c" style="fill: var(--color3, #6b3c1c)" d="M7.25 17.75h-4c-0.15 0-0.25-0.1-0.25-0.25v-1c0-0.15 0.1-0.25 0.25-0.25h4c0.15 0 0.25 0.1 0.25 0.25v1c0 0.15-0.1 0.25-0.25 0.25zM3.5 17.25h3.5v-0.5h-3.5v0.5z"></path>
<path fill="#fff" style="fill: var(--color2, #fff)" opacity="0.5" d="M3.25 18.75h4v1h-4v-1z"></path>
<path fill="#6b3c1c" style="fill: var(--color3, #6b3c1c)" d="M7.25 20h-4c-0.15 0-0.25-0.1-0.25-0.25v-1c0-0.15 0.1-0.25 0.25-0.25h4c0.15 0 0.25 0.1 0.25 0.25v1c0 0.15-0.1 0.25-0.25 0.25zM3.5 19.5h3.5v-0.5h-3.5v0.5z"></path>
<path fill="#fff" style="fill: var(--color2, #fff)" opacity="0.5" d="M3.25 21h4v1h-4v-1z"></path>
<path fill="#6b3c1c" style="fill: var(--color3, #6b3c1c)" d="M7.25 22.25h-4c-0.15 0-0.25-0.1-0.25-0.25v-1c0-0.15 0.1-0.25 0.25-0.25h4c0.15 0 0.25 0.1 0.25 0.25v1c0 0.15-0.1 0.25-0.25 0.25zM3.5 21.75h3.5v-0.5h-3.5v0.5z"></path>
<path fill="#fff" style="fill: var(--color2, #fff)" opacity="0.5" d="M3.25 23.25h4v1h-4v-1z"></path>
<path fill="#6b3c1c" style="fill: var(--color3, #6b3c1c)" d="M7.25 24.5h-4c-0.15 0-0.25-0.1-0.25-0.25v-1c0-0.15 0.1-0.25 0.25-0.25h4c0.15 0 0.25 0.1 0.25 0.25v1c0 0.15-0.1 0.25-0.25 0.25zM3.5 24h3.5v-0.5h-3.5v0.5z"></path>
<path fill="#fff" style="fill: var(--color2, #fff)" opacity="0.5" d="M7.25 12.75h-4.25c-0.15 0-0.25-0.1-0.25-0.25s0.1-0.25 0.25-0.25h4.25c0.15 0 0.25 0.1 0.25 0.25s-0.1 0.25-0.25 0.25z"></path>
<path fill="#3ad0f9" style="fill: var(--color6, #3ad0f9)" d="M20.5 26h-5v-20.425l5 2.85z"></path>
<path fill="#6b3c1c" style="fill: var(--color3, #6b3c1c)" d="M20.5 26.25h-5c-0.15 0-0.25-0.1-0.25-0.25v-20.425c0-0.1 0.050-0.175 0.125-0.225s0.175-0.050 0.25 0l5 2.825c0.075 0.050 0.125 0.125 0.125 0.225v17.6c0 0.15-0.1 0.25-0.25 0.25zM15.75 25.75h4.5v-17.175l-4.5-2.55v19.725z"></path>
<path fill="#fff" style="fill: var(--color2, #fff)" d="M16.5 16c-0.15 0-0.25-0.1-0.25-0.25v-7.75c0-0.15 0.1-0.25 0.25-0.25s0.25 0.1 0.25 0.25v7.75c0 0.15-0.1 0.25-0.25 0.25z"></path>
<path fill="#fff" style="fill: var(--color2, #fff)" d="M18 24.75c-0.15 0-0.25-0.1-0.25-0.25v-15.5c0-0.15 0.1-0.25 0.25-0.25s0.25 0.1 0.25 0.25v15.5c0 0.15-0.1 0.25-0.25 0.25z"></path>
<path fill="#fff" style="fill: var(--color2, #fff)" d="M19.25 24.75c-0.15 0-0.25-0.1-0.25-0.25v-10.75c0-0.15 0.1-0.25 0.25-0.25s0.25 0.1 0.25 0.25v10.75c0 0.15-0.1 0.25-0.25 0.25z"></path>
<path fill="#fff" style="fill: var(--color2, #fff)" d="M19.25 12.75c-0.15 0-0.25-0.1-0.25-0.25v-2.5c0-0.15 0.1-0.25 0.25-0.25s0.25 0.1 0.25 0.25v2.5c0 0.15-0.1 0.25-0.25 0.25z"></path>
<path fill="#fff" style="fill: var(--color2, #fff)" d="M16.25 2.5c0-0.275-0.325-0.5-0.75-0.5h-3.475c-0.425 0-0.75 0.225-0.75 0.5s-0.275 0.5-0.625 0.5c-0.35 0-0.625 0.225-0.625 0.5s0.325 0.5 0.75 0.5h2.5c0.425 0 0.75-0.225 0.75-0.5s0.325-0.5 0.75-0.5h0.75c0.4 0 0.725-0.225 0.725-0.5z"></path>
<path fill="#eaeaea" style="fill: var(--color7, #eaeaea)" d="M23.5 11.75h5.25v14.25h-5.25v-14.25z"></path>
<path fill="#eaeaea" style="fill: var(--color7, #eaeaea)" d="M24.225 8.5h3.575v3.25h-3.575v-3.25z"></path>
<path fill="#6b3c1c" style="fill: var(--color3, #6b3c1c)" d="M28.5 26.25h-5c-0.15 0-0.25-0.1-0.25-0.25v-14.25c0-0.15 0.1-0.25 0.25-0.25h5c0.15 0 0.25 0.1 0.25 0.25v14.25c0 0.125-0.1 0.25-0.25 0.25zM23.75 25.75h4.5v-13.75h-4.5v13.75z"></path>
<path fill="#d4d6d6" style="fill: var(--color8, #d4d6d6)" d="M24.25 10.75h3.75v0.75h-3.75v-0.75z"></path>
<path fill="#6b3c1c" style="fill: var(--color3, #6b3c1c)" d="M28 12h-3.75c-0.15 0-0.25-0.1-0.25-0.25v-3.25c0-0.15 0.1-0.25 0.25-0.25h3.75c0.15 0 0.25 0.1 0.25 0.25v3.25c0 0.15-0.1 0.25-0.25 0.25zM24.5 11.5h3.25v-2.75h-3.25v2.75z"></path>
<path fill="#6b3c1c" style="fill: var(--color3, #6b3c1c)" d="M25.25 8.75c-0.15 0-0.25-0.1-0.25-0.25v-2.25c0-0.15 0.1-0.25 0.25-0.25s0.25 0.1 0.25 0.25v2.25c0 0.15-0.1 0.25-0.25 0.25z"></path>
<path fill="#6b3c1c" style="fill: var(--color3, #6b3c1c)" d="M27 8.75c-0.15 0-0.25-0.1-0.25-0.25v-1.25c0-0.15 0.1-0.25 0.25-0.25s0.25 0.1 0.25 0.25v1.25c0 0.15-0.1 0.25-0.25 0.25z"></path>
<path fill="#6b3c1c" style="fill: var(--color3, #6b3c1c)" d="M24.25 12.5h0.5v0.75h-0.5v-0.75z"></path>
<path fill="#6b3c1c" style="fill: var(--color3, #6b3c1c)" d="M25.25 12.5h0.5v0.75h-0.5v-0.75z"></path>
<path fill="#6b3c1c" style="fill: var(--color3, #6b3c1c)" d="M25 9.25h0.5v0.75h-0.5v-0.75z"></path>
<path fill="#6b3c1c" style="fill: var(--color3, #6b3c1c)" d="M26 9.25h0.5v0.75h-0.5v-0.75z"></path>
<path fill="#6b3c1c" style="fill: var(--color3, #6b3c1c)" d="M26.25 12.5h0.5v0.75h-0.5v-0.75z"></path>
<path fill="#6b3c1c" style="fill: var(--color3, #6b3c1c)" d="M27.25 12.5h0.5v0.75h-0.5v-0.75z"></path>
<path fill="#6b3c1c" style="fill: var(--color3, #6b3c1c)" d="M24.25 14h0.5v0.75h-0.5v-0.75z"></path>
<path fill="#6b3c1c" style="fill: var(--color3, #6b3c1c)" d="M25.25 14h0.5v0.75h-0.5v-0.75z"></path>
<path fill="#6b3c1c" style="fill: var(--color3, #6b3c1c)" d="M26.25 14h0.5v0.75h-0.5v-0.75z"></path>
<path fill="#6b3c1c" style="fill: var(--color3, #6b3c1c)" d="M27.25 14h0.5v0.75h-0.5v-0.75z"></path>
<path fill="#6b3c1c" style="fill: var(--color3, #6b3c1c)" d="M24.25 15.5h0.5v0.75h-0.5v-0.75z"></path>
<path fill="#6b3c1c" style="fill: var(--color3, #6b3c1c)" d="M25.25 15.5h0.5v0.75h-0.5v-0.75z"></path>
<path fill="#6b3c1c" style="fill: var(--color3, #6b3c1c)" d="M26.25 15.5h0.5v0.75h-0.5v-0.75z"></path>
<path fill="#6b3c1c" style="fill: var(--color3, #6b3c1c)" d="M27.25 15.5h0.5v0.75h-0.5v-0.75z"></path>
<path fill="#6b3c1c" style="fill: var(--color3, #6b3c1c)" d="M24.25 17h0.5v0.75h-0.5v-0.75z"></path>
<path fill="#6b3c1c" style="fill: var(--color3, #6b3c1c)" d="M25.25 17h0.5v0.75h-0.5v-0.75z"></path>
<path fill="#6b3c1c" style="fill: var(--color3, #6b3c1c)" d="M26.25 17h0.5v0.75h-0.5v-0.75z"></path>
<path fill="#6b3c1c" style="fill: var(--color3, #6b3c1c)" d="M27.25 17h0.5v0.75h-0.5v-0.75z"></path>
<path fill="#6b3c1c" style="fill: var(--color3, #6b3c1c)" d="M24.25 18.5h0.5v0.75h-0.5v-0.75z"></path>
<path fill="#6b3c1c" style="fill: var(--color3, #6b3c1c)" d="M25.25 18.5h0.5v0.75h-0.5v-0.75z"></path>
<path fill="#6b3c1c" style="fill: var(--color3, #6b3c1c)" d="M26.25 18.5h0.5v0.75h-0.5v-0.75z"></path>
<path fill="#6b3c1c" style="fill: var(--color3, #6b3c1c)" d="M27.25 18.5h0.5v0.75h-0.5v-0.75z"></path>
<path fill="#6b3c1c" style="fill: var(--color3, #6b3c1c)" d="M24.25 20h0.5v0.75h-0.5v-0.75z"></path>
<path fill="#6b3c1c" style="fill: var(--color3, #6b3c1c)" d="M25.25 20h0.5v0.75h-0.5v-0.75z"></path>
<path fill="#6b3c1c" style="fill: var(--color3, #6b3c1c)" d="M26.25 20h0.5v0.75h-0.5v-0.75z"></path>
<path fill="#6b3c1c" style="fill: var(--color3, #6b3c1c)" d="M27.25 20h0.5v0.75h-0.5v-0.75z"></path>
<path fill="#6b3c1c" style="fill: var(--color3, #6b3c1c)" d="M24.25 21.5h0.5v0.75h-0.5v-0.75z"></path>
<path fill="#6b3c1c" style="fill: var(--color3, #6b3c1c)" d="M25.25 21.5h0.5v0.75h-0.5v-0.75z"></path>
<path fill="#6b3c1c" style="fill: var(--color3, #6b3c1c)" d="M26.25 21.5h0.5v0.75h-0.5v-0.75z"></path>
<path fill="#6b3c1c" style="fill: var(--color3, #6b3c1c)" d="M27.25 21.5h0.5v0.75h-0.5v-0.75z"></path>
<path fill="#6b3c1c" style="fill: var(--color3, #6b3c1c)" d="M24.25 23h0.5v0.75h-0.5v-0.75z"></path>
<path fill="#6b3c1c" style="fill: var(--color3, #6b3c1c)" d="M25.25 23h0.5v0.75h-0.5v-0.75z"></path>
<path fill="#6b3c1c" style="fill: var(--color3, #6b3c1c)" d="M26.25 23h0.5v0.75h-0.5v-0.75z"></path>
<path fill="#6b3c1c" style="fill: var(--color3, #6b3c1c)" d="M27.25 23h0.5v0.75h-0.5v-0.75z"></path>
<path fill="#6b3c1c" style="fill: var(--color3, #6b3c1c)" d="M24.25 24.5h0.5v0.75h-0.5v-0.75z"></path>
<path fill="#6b3c1c" style="fill: var(--color3, #6b3c1c)" d="M25.25 24.5h0.5v0.75h-0.5v-0.75z"></path>
<path fill="#6b3c1c" style="fill: var(--color3, #6b3c1c)" d="M26.25 24.5h0.5v0.75h-0.5v-0.75z"></path>
<path fill="#6b3c1c" style="fill: var(--color3, #6b3c1c)" d="M27.25 24.5h0.5v0.75h-0.5v-0.75z"></path>
<path fill="#fff" style="fill: var(--color2, #fff)" d="M27.25 10.5c-0.15 0-0.25-0.1-0.25-0.25v-1c0-0.15 0.1-0.25 0.25-0.25s0.25 0.1 0.25 0.25v1c0 0.15-0.1 0.25-0.25 0.25z"></path>
<path fill="#d4d6d6" style="fill: var(--color8, #d4d6d6)" d="M8 9.5h4.25v16.5h-4.25v-16.5z"></path>
<path fill="#6b3c1c" style="fill: var(--color3, #6b3c1c)" d="M12.25 26.25h-4.25c-0.15 0-0.25-0.1-0.25-0.25v-16.5c0-0.15 0.1-0.25 0.25-0.25h4.25c0.15 0 0.25 0.1 0.25 0.25v16.5c0 0.125-0.1 0.25-0.25 0.25zM8.25 25.75h3.75v-16h-3.75v16z"></path>
<path fill="#6b3c1c" style="fill: var(--color3, #6b3c1c)" d="M9.5 26.25h-0.5c-0.15 0-0.25-0.1-0.25-0.25v-15.25c0-0.15 0.1-0.25 0.25-0.25h0.5c0.15 0 0.25 0.1 0.25 0.25v15.25c0 0.15-0.1 0.25-0.25 0.25z"></path>
<path fill="#6b3c1c" style="fill: var(--color3, #6b3c1c)" d="M11.25 26.25h-0.5c-0.15 0-0.25-0.1-0.25-0.25v-15.25c0-0.15 0.1-0.25 0.25-0.25h0.5c0.15 0 0.25 0.1 0.25 0.25v15.25c0 0.15-0.1 0.25-0.25 0.25z"></path>
<path fill="#fff" style="fill: var(--color2, #fff)" opacity="0.5" d="M11 25.25c-0.15 0-0.25-0.1-0.25-0.25v-10.75c0-0.15 0.1-0.25 0.25-0.25s0.25 0.1 0.25 0.25v10.75c0 0.15-0.1 0.25-0.25 0.25z"></path>
<path fill="#fff" style="fill: var(--color2, #fff)" opacity="0.5" d="M11 13.25c-0.15 0-0.25-0.1-0.25-0.25v-2c0-0.15 0.1-0.25 0.25-0.25s0.25 0.1 0.25 0.25v2c0 0.15-0.1 0.25-0.25 0.25z"></path>
<path fill="#fff" style="fill: var(--color2, #fff)" opacity="0.5" d="M9.25 20.75c-0.15 0-0.25-0.1-0.25-0.25v-6c0-0.15 0.1-0.25 0.25-0.25s0.25 0.1 0.25 0.25v6c0 0.15-0.1 0.25-0.25 0.25z"></path>
<path fill="#415e6d" style="fill: var(--color9, #415e6d)" d="M12.25 16.75h4.5v9.25h-4.5v-9.25z"></path>
<path fill="#6b3c1c" style="fill: var(--color3, #6b3c1c)" d="M16.75 26.25h-4.5c-0.15 0-0.25-0.1-0.25-0.25v-9.25c0-0.15 0.1-0.25 0.25-0.25h4.5c0.15 0 0.25 0.1 0.25 0.25v9.25c0 0.15-0.1 0.25-0.25 0.25zM12.5 25.75h4v-8.75h-4v8.75z"></path>
<path fill="#3ad0f9" style="fill: var(--color6, #3ad0f9)" d="M13.25 17.75h2.5v8.25h-2.5v-8.25z"></path>
<path fill="#6b3c1c" style="fill: var(--color3, #6b3c1c)" d="M15.75 26.25h-2.5c-0.15 0-0.25-0.1-0.25-0.25v-8.25c0-0.15 0.1-0.25 0.25-0.25h2.5c0.15 0 0.25 0.1 0.25 0.25v8.25c0 0.15-0.1 0.25-0.25 0.25zM13.5 25.75h2v-7.75h-2v7.75z"></path>
<path fill="#fff" style="fill: var(--color2, #fff)" d="M13.875 21.5c-0.075 0-0.125-0.025-0.175-0.075-0.1-0.1-0.1-0.25 0-0.35l0.875-0.875c0.1-0.1 0.25-0.1 0.35 0s0.1 0.25 0 0.35l-0.875 0.875c-0.050 0.050-0.1 0.075-0.175 0.075z"></path>
<path fill="#fff" style="fill: var(--color2, #fff)" d="M13.875 19.875c-0.075 0-0.125-0.025-0.175-0.075-0.1-0.1-0.1-0.25 0-0.35l0.875-0.875c0.1-0.1 0.25-0.1 0.35 0s0.1 0.25 0 0.35l-0.875 0.875c-0.050 0.050-0.1 0.075-0.175 0.075z"></path>
<path fill="#fff" style="fill: var(--color2, #fff)" d="M13.875 24.75c-0.075 0-0.125-0.025-0.175-0.075-0.1-0.1-0.1-0.25 0-0.35l0.875-0.875c0.1-0.1 0.25-0.1 0.35 0s0.1 0.25 0 0.35l-0.875 0.875c-0.050 0.050-0.1 0.075-0.175 0.075z"></path>
<path fill="#415e6d" style="fill: var(--color9, #415e6d)" d="M20.5 20.75h3v5.25h-3v-5.25z"></path>
<path fill="#6b3c1c" style="fill: var(--color3, #6b3c1c)" d="M23.5 26.25h-3c-0.15 0-0.25-0.1-0.25-0.25v-5.25c0-0.15 0.1-0.25 0.25-0.25h3c0.15 0 0.25 0.1 0.25 0.25v5.25c0 0.15-0.1 0.25-0.25 0.25zM20.75 25.75h2.5v-4.75h-2.5v4.75z"></path>
<path fill="#f99900" style="fill: var(--color1, #f99900)" d="M21.25 21.5h0.5v0.75h-0.5v-0.75z"></path>
<path fill="#f99900" style="fill: var(--color1, #f99900)" d="M22.25 21.5h0.5v0.75h-0.5v-0.75z"></path>
<path fill="#f99900" style="fill: var(--color1, #f99900)" d="M21.25 22.75h0.5v0.75h-0.5v-0.75z"></path>
<path fill="#f99900" style="fill: var(--color1, #f99900)" d="M22.25 22.75h0.5v0.75h-0.5v-0.75z"></path>
<path fill="#f99900" style="fill: var(--color1, #f99900)" d="M21.25 24h0.5v0.75h-0.5v-0.75z"></path>
<path fill="#f99900" style="fill: var(--color1, #f99900)" d="M22.25 24h0.5v0.75h-0.5v-0.75z"></path>
</symbol>



<symbol id="icon-15133895741644223543" viewBox="0 0 28 28">
<path fill="#ca7300" style="fill: var(--color1, #ca7300)" d="M19.5 17.5h4.5c1.105 0 2 0.895 2 2v0 0c0 1.105-0.895 2-2 2v0h-4.5z"></path>
<path fill="#ca7300" style="fill: var(--color1, #ca7300)" d="M7.5 11.5h14.5v14.5h-16.5v-12.5c0-1.105 0.895-2 2-2v0z"></path>
<path fill="#5eac24" style="fill: var(--color2, #5eac24)" d="M7.5 14l10-10 8 8-2 2h-16z"></path>
<path fill="#47821b" style="fill: var(--color3, #47821b)" d="M9.5 12v-8h8l-8 8z"></path>
<path fill="#69c229" style="fill: var(--color4, #69c229)" d="M20.5 14l1.295-1.29c-0.181-0.181-0.293-0.431-0.293-0.707s0.112-0.527 0.293-0.707v0l-3.585-3.59c-0.181 0.181-0.431 0.293-0.707 0.293s-0.526-0.112-0.707-0.293v0l-6.295 6.295z"></path>
<path fill="#529820" style="fill: var(--color5, #529820)" d="M11.5 7c0.552 0 1-0.448 1-1v0h3l-4 4z"></path>
<path fill="#5eac24" style="fill: var(--color2, #5eac24)" d="M12 14c0-1.933 1.567-3.5 3.5-3.5s3.5 1.567 3.5 3.5v0z"></path>
<path fill="#ff9811" style="fill: var(--color6, #ff9811)" d="M7.5 26h15.5v2h-15.5v-2z"></path>
<path fill="#e4880f" style="fill: var(--color7, #e4880f)" d="M5.5 24v2c0 1.105 0.895 2 2 2v0-2c-1.105 0-2-0.895-2-2v0z"></path>
<path fill="#ffab3d" style="fill: var(--color8, #ffab3d)" d="M21.5 15.5h-14v10.5h15.5v-10.5h-1.5z"></path>
<path fill="#e49937" style="fill: var(--color9, #e49937)" d="M7.5 26v-10.5c-1.105 0-2-0.895-2-2v0 10.5c0 1.105 0.895 2 2 2v0z"></path>
<path fill="#ee8700" style="fill: var(--color10, #ee8700)" d="M26 19v0c0 1.105-0.895 2-2 2v0h-4.5c-1.105 0-2 0.895-2 2v0 0c0 1.105 0.895 2 2 2v0h4.5c1.105 0 2-0.895 2-2v0z"></path>
<path fill="#ffd422" style="fill: var(--color11, #ffd422)" d="M19 22.5h1v1h-1v-1z"></path>
<path fill="#fff" style="fill: var(--color12, #fff)" d="M7.5 25.5h1v1h-1v-1z"></path>
<path fill="#fff" style="fill: var(--color12, #fff)" d="M9.5 25.5h3.5v1h-3.5v-1z"></path>
<path fill="#fff" style="fill: var(--color12, #fff)" d="M20 23.5h2.5v1h-2.5v-1z"></path>
<path fill="#fff" style="fill: var(--color12, #fff)" d="M23.5 24.5v-1c0.276 0 0.5-0.224 0.5-0.5v0h1c0 0.828-0.672 1.5-1.5 1.5v0z"></path>
</symbol>

</defs>
</svg>